<?xml version="1.0" encoding="iso-8859-1"?>
<!-- Generator: Adobe Illustrator 16.0.0, SVG Export Plug-In . SVG Version: 6.00 Build 0)  -->
<!DOCTYPE svg PUBLIC "-//W3C//DTD SVG 1.1//EN" "http://www.w3.org/Graphics/SVG/1.1/DTD/svg11.dtd">
<svg version="1.1" id="Capa_1" xmlns="http://www.w3.org/2000/svg" xmlns:xlink="http://www.w3.org/1999/xlink" x="0px" y="0px"
	 width="491.773px" height="491.773px" viewBox="0 0 491.773 491.773" style="enable-background:new 0 0 491.773 491.773;"
	 xml:space="preserve">
<g>
	<path d="M204.312,72.304c11.956-5.16,25.119-8.057,38.971-8.057c54.351,0,98.41,44.066,98.41,98.417
		c0,51.647-39.801,93.919-90.396,98.011c0.323-1.515,0.656-3.03,1.154-4.618c6.032-19.132,28.659-31.66,42.682-44.413
		c35.438-32.224,37.604-90.042-11.119-109.888c-19.655-8.005-41.118-9.812-61.122-16.753
		C215.759,82.531,208.783,78.495,204.312,72.304z M144.872,162.668c0,47.303,33.384,86.772,77.865,96.234
		c3.063-17.62,12.583-32.939,26.453-45.446c14.075-12.684,36.581-25.258,42.305-44.544c6.029-20.331-1.997-35.699-21.8-42.137
		c-25.918-8.417-73.737-12.726-90.532-38.665C158.203,106.159,144.872,132.837,144.872,162.668z M182.738,24.2l-46.21,8.399
		c-2.573,0.47-5.092,1.24-7.487,2.284c-10.646,4.652-18.278,14.693-19.915,26.198l-6.588,46.496L75.804,146.19
		c-8.298,11.986-7.994,27.866,0.764,39.508l28.217,37.548l8.393,46.205c2.315,12.739,11.612,22.83,23.771,26.37l-87.54,143.613
		c-1.583,2.593-1.188,5.931,0.951,8.087c2.134,2.162,5.475,2.583,8.08,1.023l71.335-42.671c0.824,8.134,2.036,20.039,3.268,31.945
		c1.088,10.591,2.197,21.171,3.061,29.107c0.435,3.987,0.806,7.322,1.081,9.647c0.504,4.184,1.119,9.385,6.994,9.459
		c0.026,0,0.059,0,0.086,0c1.737,0,3.409-0.689,4.646-1.904c1.037-1.018,1.704-2.474,1.919-3.927
		c2.218-7.97,36.593-89.437,65.524-157.239l10.411,7.211c7.02,4.865,15.665,6.78,23.98,5.626
		c-4.173-6.578-9.356-12.711-14.203-19.519c-8.729-12.269-14.052-26.112-14.837-41.242c-0.022-0.405,0.021-0.783,0.012-1.188
		c-52.248-10.078-91.727-55.994-91.727-111.182c0-36.282,17.124-68.501,43.654-89.232c-0.561-3.661-0.689-7.598-0.246-11.907
		 M442.331,444.146l-94.289-150.979l2.003-0.366c2.568-0.471,5.089-1.242,7.48-2.287c10.649-4.656,18.275-14.693,19.914-26.204
		l6.588-46.492l26.734-38.613c8.29-11.986,7.989-27.866-0.765-39.516l-28.215-37.541l-8.395-46.206
		c-2.61-14.339-14.052-25.349-28.487-27.396l-46.5-6.6L266.701,0c-20.192,15.464-43.023,28.402-57.717,49.173
		c-1.529,2.162-3.234,4.622-4.611,7.207c12.146-4.451,25.214-7.004,38.905-7.004c62.563,0,113.289,50.72,113.289,113.287
		c0,60.052-46.765,109.054-105.834,112.914c3.048,21.185,21.981,36.589,31.195,57.295c3.907,8.761,5.604,18.047,5.724,27.449
		c25.922,59.224,51.729,118.927,53.693,125.68c0.23,1.466,0.917,2.91,1.952,3.912c1.253,1.209,2.928,1.877,4.669,1.86
		c0.025,0,0.059,0,0.086,0c5.877-0.137,6.435-5.352,6.89-9.536c0.257-2.333,0.585-5.663,0.986-9.66
		c0.775-7.942,1.766-18.545,2.745-29.144c1.102-11.912,2.178-23.836,2.918-31.971l71.798,41.892c2.62,1.532,5.952,1.073,8.064-1.101
		C443.577,450.071,443.938,446.725,442.331,444.146z"/>
</g>
<g>
</g>
<g>
</g>
<g>
</g>
<g>
</g>
<g>
</g>
<g>
</g>
<g>
</g>
<g>
</g>
<g>
</g>
<g>
</g>
<g>
</g>
<g>
</g>
<g>
</g>
<g>
</g>
<g>
</g>
</svg>
