<svg id="Capa_1" enable-background="new 0 0 512.56 512.56" height="512" viewBox="0 0 512.56 512.56" width="512" xmlns="http://www.w3.org/2000/svg"><g><path d="m319.76 261.76v42.24h-126.96v-42.24c0-5.51 4.49-10 10-10h106.96c5.51 0 10 4.49 10 10z"/><path d="m203.22 145.51c40.568 8.365 78.85-6.7 94.37-27.56-29.169-39.723-85.024-23.234-94.37 27.56zm106.63 3.22c-27.282 24.323-68.826 33.093-105.67 27.42 6.56 26.15 27.43 45.32 52.1 45.32 33.803 0 58.792-35.254 53.57-72.74zm-106.63-3.22c40.568 8.365 78.85-6.7 94.37-27.56-29.169-39.723-85.024-23.234-94.37 27.56zm106.63 3.22c-27.282 24.323-68.826 33.093-105.67 27.42 6.56 26.15 27.43 45.32 52.1 45.32 33.803 0 58.792-35.254 53.57-72.74zm-106.63-3.22c40.568 8.365 78.85-6.7 94.37-27.56-29.169-39.723-85.024-23.234-94.37 27.56zm106.63 3.22c-27.282 24.323-68.826 33.093-105.67 27.42 6.56 26.15 27.43 45.32 52.1 45.32 33.803 0 58.792-35.254 53.57-72.74zm0 0c-27.282 24.323-68.826 33.093-105.67 27.42 6.56 26.15 27.43 45.32 52.1 45.32 33.803 0 58.792-35.254 53.57-72.74zm-12.26-30.78c-29.17-39.723-85.024-23.234-94.37 27.56 40.568 8.365 78.85-6.7 94.37-27.56zm94.5-117.95h-271.62l-63.19 90.27v77.32c0 68.2 17.66 135.68 51.08 195.14 36.825 65.527 85.475 111.803 147.92 149.83 62.437-38.022 111.09-84.295 147.92-149.83 33.42-59.46 51.08-126.94 51.08-195.14v-77.32zm-42.33 334h-186.96v-72.24c0-19.45 13.95-35.7 32.38-39.27-50.301-58.405-13.461-156.7 61.1-156.7 74.409 0 111.497 98.184 61.1 156.7 18.43 3.57 32.38 19.82 32.38 39.27zm-145.58-157.85c6.56 26.15 27.43 45.32 52.1 45.32 33.803 0 58.792-35.254 53.57-72.74-27.354 24.388-68.924 33.078-105.67 27.42zm93.41-58.2c-29.17-39.723-85.024-23.234-94.37 27.56 40.568 8.365 78.85-6.7 94.37-27.56zm-94.37 27.56c40.568 8.365 78.85-6.7 94.37-27.56-29.169-39.723-85.024-23.234-94.37 27.56zm106.63 3.22c-27.282 24.323-68.826 33.093-105.67 27.42 6.56 26.15 27.43 45.32 52.1 45.32 33.803 0 58.792-35.254 53.57-72.74zm-106.63-3.22c40.568 8.365 78.85-6.7 94.37-27.56-29.169-39.723-85.024-23.234-94.37 27.56zm106.63 3.22c-27.282 24.323-68.826 33.093-105.67 27.42 6.56 26.15 27.43 45.32 52.1 45.32 33.803 0 58.792-35.254 53.57-72.74z"/></g></svg>