<svg height="464pt" viewBox="0 0 464 464" width="464pt" xmlns="http://www.w3.org/2000/svg"><path d="m88 0h32.007812v176h-32.007812zm0 0"/><path d="m152 96h16v64h128v-64h16v64h16v-144h-16v64h-16v-64h-128v64h-16v-64h-16v144h16zm0 0"/><path d="m344 0h32.007812v176h-32.007812zm0 0"/><path d="m273.753906 192 4-16h-91.507812l4 16zm0 0"/><path d="m72 320c-39.703125 0-72 32.296875-72 72s32.296875 72 72 72 72-32.296875 72-72-32.296875-72-72-72zm0 64c13.230469 0 24 10.769531 24 24 0 10.414062-6.710938 19.214844-16 22.527344v9.472656h-16v-9.472656c-9.289062-3.3125-16-12.113282-16-22.527344h16c0 4.414062 3.585938 8 8 8s8-3.585938 8-8-3.585938-8-8-8c-13.230469 0-24-10.769531-24-24 0-10.414062 6.710938-19.214844 16-22.527344v-9.472656h16v9.472656c9.289062 3.3125 16 12.113282 16 22.527344h-16c0-4.414062-3.585938-8-8-8s-8 3.585938-8 8 3.585938 8 8 8zm0 0"/><path d="m392 208c-39.703125 0-72 32.296875-72 72s32.296875 72 72 72 72-32.296875 72-72-32.296875-72-72-72zm0 64c13.230469 0 24 10.769531 24 24 0 10.414062-6.710938 19.214844-16 22.527344v9.472656h-16v-9.472656c-9.289062-3.3125-16-12.113282-16-22.527344h16c0 4.414062 3.585938 8 8 8s8-3.585938 8-8-3.585938-8-8-8c-13.230469 0-24-10.769531-24-24 0-10.414062 6.710938-19.214844 16-22.527344v-9.472656h16v9.472656c9.289062 3.3125 16 12.113282 16 22.527344h-16c0-4.414062-3.585938-8-8-8s-8 3.585938-8 8 3.585938 8 8 8zm0 0"/><path d="m384 401.007812c0 17.089844-13.902344 30.992188-30.992188 30.992188-8.59375 0-16.871093-3.609375-22.71875-9.902344l-74.289062-80.007812v-134.089844h-48v82.390625l-62.558594-67.375c-8.855468-9.535156-21.417968-15.015625-34.449218-15.015625-25.914063 0-46.992188 21.078125-46.992188 46.992188v17.007812h16v-17.007812c0-17.089844 13.902344-30.992188 30.992188-30.992188 8.59375 0 16.871093 3.609375 22.71875 9.902344l74.289062 80.007812v150.089844h48v-98.390625l62.558594 67.375c8.855468 9.535156 21.417968 15.015625 34.449218 15.015625 25.914063 0 46.992188-21.078125 46.992188-46.992188v-1.007812h-16zm0 0"/><path d="m384 368h16v16h-16zm0 0"/><path d="m64 288h16v16h-16zm0 0"/></svg>