<svg id="Capa_1" enable-background="new 0 0 512 512" height="512" viewBox="0 0 512 512" width="512" xmlns="http://www.w3.org/2000/svg"><path d="m52 512h-37c-8.284 0-15-6.716-15-15v-180c0-8.284 6.716-15 15-15h37c8.284 0 15 6.716 15 15v180c0 8.284-6.716 15-15 15z"/><path d="m493.252 348.812c-11.564-6.366-25.677-5.932-36.828 1.132l-54.88 34.757c-1.659 14.16-7.893 27.299-18.05 37.7-12.344 12.638-28.855 19.599-46.494 19.599h-74.576c-8.077 0-15.027-6.207-15.407-14.275-.406-8.614 6.458-15.725 14.983-15.725h75c19.579 0 35.456-16.162 34.99-35.845-.452-19.106-16.535-34.155-35.647-34.155h-84.343l-9.784-7.338c-19.485-14.614-43.629-22.662-67.986-22.662-20.532 0-40.691 5.584-58.298 16.147l-18.932 11.36v152.493h252.126c14.579 0 28.842-4.249 41.044-12.227l105.439-68.941c10.263-6.712 16.391-18.04 16.391-30.303 0-13.2-7.184-25.353-18.748-31.717z"/><path d="m212 0c-68.925 0-125 56.075-125 125s56.075 125 125 125 125-56.075 125-125-56.075-125-125-125zm15 187.071v2.929c0 8.284-6.716 15-15 15s-15-6.716-15-15v-2.942c-12.122-4.936-21.476-15.676-24.196-29.073-1.648-8.118 3.596-16.036 11.715-17.686 8.117-1.646 16.037 3.597 17.686 11.715.939 4.627 5.06 7.985 9.796 7.985 5.514 0 10-4.486 10-10s-4.486-10-10-10c-22.056 0-40-17.944-40-40 0-16.752 10.357-31.124 25-37.071v-2.928c0-8.284 6.716-15 15-15s15 6.716 15 15v2.942c12.122 4.936 21.476 15.676 24.196 29.073 1.648 8.118-3.597 16.036-11.715 17.686-8.117 1.648-16.036-3.597-17.686-11.715-.94-4.628-5.06-7.986-9.796-7.986-5.514 0-10 4.486-10 10s4.486 10 10 10c22.056 0 40 17.944 40 40 0 16.752-10.357 31.124-25 37.071z"/><path d="m510.584 201.806c-2.469-5.271-7.764-8.638-13.584-8.638h-21.834c-13.257-52.36-43.146-99.744-85.058-134.453-19.496-16.146-41.216-29.185-64.323-38.846 25.565 27.648 41.215 64.594 41.215 105.131 0 12.468-1.49 24.592-4.282 36.215 6.964 9.982 12.854 20.699 17.485 31.953h-13.203c-5.82 0-11.115 3.367-13.584 8.638s-1.665 11.494 2.061 15.965l65 78c2.85 3.42 7.071 5.397 11.523 5.397s8.674-1.978 11.523-5.397l65-78c3.726-4.471 4.53-10.695 2.061-15.965z"/></svg>