<?xml version="1.0" encoding="iso-8859-1"?>
<!-- Generator: Adobe Illustrator 21.0.0, SVG Export Plug-In . SVG Version: 6.00 Build 0)  -->
<svg version="1.1" id="Capa_1" xmlns="http://www.w3.org/2000/svg" xmlns:xlink="http://www.w3.org/1999/xlink" x="0px" y="0px"
	 viewBox="0 0 464.037 464.037" style="enable-background:new 0 0 464.037 464.037;" xml:space="preserve">
<g>
	<g>
		<path d="M136.427,272.077l-39.304,6.552l14.8,96.192c0.388,2.518-0.447,5.07-2.248,6.872l-24,24
			c-3.124,3.123-8.188,3.123-11.312,0l-24-24c-1.801-1.802-2.636-4.354-2.248-6.872l14.8-96.192l-39.304-6.552
			c-13.08,0.222-23.572,10.878-23.592,23.96v120h160v-120C159.999,282.956,149.506,272.3,136.427,272.077z M136.019,328.037h-24v-16
			h24V328.037z"/>
	</g>
</g>
<g>
	<g>
		<rect x="0.019" y="432.037" width="160" height="32"/>
	</g>
</g>
<g>
	<g>
		<polygon points="81.155,280.037 78.883,280.037 64.539,373.245 80.019,388.725 95.499,373.245 		"/>
	</g>
</g>
<g>
	<g>
		<path d="M88.019,96.037H0.587c4.013,27.535,27.606,47.965,55.432,48h87.264C139.315,116.546,115.795,96.117,88.019,96.037z"/>
	</g>
</g>
<g>
	<g>
		<path d="M101.347,220.309c25.552-9.003,42.618-33.18,42.544-60.272H56.019c-13.81-0.001-27.324-4-38.912-11.512
			c-0.717,3.796-1.081,7.649-1.088,11.512c0.053,27.091,17.137,51.221,42.672,60.272c3.195,1.132,5.329,4.155,5.328,7.544v4.184
			c-0.003,10.753-4.354,21.048-12.064,28.544l20.728,3.456h14.672l20.728-3.456c-7.71-7.496-12.061-17.791-12.064-28.544v-4.184
			C96.017,224.464,98.152,221.441,101.347,220.309z"/>
	</g>
</g>
<g>
	<g>
		<path d="M382.043,141.325l-24.368,24.368c-3.124,3.123-8.188,3.123-11.312,0l-16-16l11.312-11.312l10.344,10.344l20.8-20.8
			c-5.753-5.055-13.141-7.857-20.8-7.888c-17.919-0.246-32.644,14.081-32.891,31.999c-0.246,17.919,14.081,32.644,31.999,32.891
			s32.644-14.081,32.891-31.999C384.072,148.972,383.403,145.04,382.043,141.325z"/>
	</g>
</g>
<g>
	<g>
		<path d="M406.851,80.037c-2.834,4.939-8.09,7.989-13.784,8H198.971c-5.694-0.011-10.95-3.061-13.784-8h-9.168v352h256v-352
			H406.851z M202.363,181.693l11.312-11.312l18.344,18.344l18.336-18.344l11.32,11.32l-18.344,18.336l18.344,18.344l-11.32,11.312
			l-18.336-18.344l-18.344,18.344l-11.32-11.32l18.352-18.336L202.363,181.693z M349.675,378.381l-11.32,11.312l-18.336-18.344
			l-18.344,18.344l-11.312-11.32l18.344-18.336l-18.344-18.344l11.32-11.312l18.336,18.344l18.344-18.344l11.312,11.32
			l-18.344,18.336L349.675,378.381z M378.363,253.693l-18.344-18.344v16.688c-0.035,28.704-23.296,51.965-52,52
			c-19.873,0.022-35.978,16.127-36,36v8c-0.035,28.704-23.296,51.965-52,52h-20v-16h20c19.873-0.022,35.978-16.127,36-36v-8
			c0.035-28.704,23.296-51.965,52-52c19.873-0.022,35.978-16.127,36-36v-16.688l-18.344,18.344l-11.312-11.312l32-32
			c3.124-3.123,8.188-3.123,11.312,0l32,32L378.363,253.693z M374.895,194.233c-23.304,12.636-52.44,3.988-65.076-19.316
			c-12.636-23.304-3.988-52.44,19.316-65.076c7.026-3.81,14.892-5.805,22.884-5.804c11.914,0.005,23.395,4.462,32.192,12.496
			l10.152-10.152l11.312,11.312l-11.464,11.464C406.847,152.461,398.199,181.597,374.895,194.233z"/>
	</g>
</g>
<g>
	<g>
		<path d="M432.019,48.037h-54.952l-3-4.504c-1.451-2.188-3.903-3.501-6.528-3.496h-17.976c-10.681-0.148-20.011-7.26-22.984-17.52
			c-5.242-16.878-23.174-26.311-40.051-21.069c-10.063,3.126-17.943,11.005-21.069,21.069c-2.973,10.26-12.303,17.372-22.984,17.52
			h-17.976c-2.625-0.005-5.077,1.308-6.528,3.496l-3,4.504h-54.952c-17.673,0-32,14.327-32,32h16c0-8.837,7.163-16,16-16h44.28
			l-5.328,8h194.096l-5.328-8h44.28c8.837,0,16,7.163,16,16v352c0,8.837-7.163,16-16,16h-256v16h256c17.673,0,32-14.327,32-32v-352
			C464.019,62.364,449.692,48.037,432.019,48.037z M304.019,32.037h-16v-16h16V32.037z"/>
	</g>
</g>
<g>
</g>
<g>
</g>
<g>
</g>
<g>
</g>
<g>
</g>
<g>
</g>
<g>
</g>
<g>
</g>
<g>
</g>
<g>
</g>
<g>
</g>
<g>
</g>
<g>
</g>
<g>
</g>
<g>
</g>
</svg>
